<?xml version="1.0" encoding="UTF-8" standalone="no"?>
<!DOCTYPE svg PUBLIC "-//W3C//DTD SVG 1.1//EN" "http://www.w3.org/Graphics/SVG/1.1/DTD/svg11.dtd">
<svg width="100%" height="100%" viewBox="0 0 1290 1331" version="1.1" xmlns="http://www.w3.org/2000/svg" xmlns:xlink="http://www.w3.org/1999/xlink" xml:space="preserve" xmlns:serif="http://www.serif.com/" style="fill-rule:evenodd;clip-rule:evenodd;stroke-linejoin:round;stroke-miterlimit:2;">
    <g id="ArtBoard1" transform="matrix(0.189326,0,0,0.29978,251.254048,37.844522)">
        <rect x="-1327.097" y="-126.241" width="6811.534" height="4437.885" style="fill:none;"/>
        <g transform="matrix(6.45794,0,0,4.078512,-1132.991172,-62.636337)">
            <path d="M966.379,19.989C970.163,24.142 971.462,36.169 971.462,36.169L969.991,990.682C969.991,990.682 964.422,1005.26 960.829,1009.329C957.536,1013.058 948.431,1015.094 948.431,1015.094C948.431,1015.094 128.513,1015.232 29.798,1014.074C22.204,1013.985 20.504,1009.743 14.879,1004.927C14.568,1004.661 9.935,1001.979 9.761,992.032C7.566,866.46 12.544,37.728 12.544,37.728C12.544,37.728 11.011,24.93 18.072,16.314C18.173,16.191 38.094,7.284 38.094,7.284L948.76,11.253C948.76,11.253 962.595,15.836 966.379,19.989ZM266.769,84.517C268.381,81.569 269.137,82.679 272.5,82.679C713.6,82.68 713.654,82.648 714.187,82.964C714.905,83.39 714.97,83.687 714.869,395.5C714.862,416.172 716.11,418.748 711.501,418.851C708.661,418.914 311.3,418.858 276.5,418.853C269.854,418.852 266.741,421.101 266.814,414.514L266.812,410.497L266.817,404.502C266.85,395.432 266.839,395.538 266.813,386.497C266.781,374.889 266.793,375.02 266.817,363.502C266.915,316.968 267.042,102.645 266.769,84.517ZM266.512,598.514C280.651,597.779 602.05,598.427 713.526,598.165C715.162,599.683 714.915,600.056 714.913,649.5C714.904,930.372 715.035,930.635 714.275,931.222C713.203,932.047 436.362,931.451 270.5,931.622C268.142,931.624 268.031,932.041 266.282,930.574C265.66,926.205 266.121,734.065 265.949,600.499C266.137,599.838 266.324,599.176 266.512,598.514ZM265.949,600.499C266.121,734.065 265.66,926.205 266.282,930.574C263.711,929.998 264.587,923.182 264.593,920.499C264.771,848.67 264.523,604.626 264.944,601.509C265.008,601.038 265.885,600.97 265.949,600.499Z" style="fill:rgb(242,216,236);"/>
            <path d="M236.682,953.474C236.211,947.935 236.604,947.995 236.581,942.501C235.937,787.262 236.126,661.9 236.163,637.5C236.259,573.565 235.842,572.924 238.916,569.907C243.769,565.144 245.22,567.664 698.5,567.151C734.162,567.111 742.346,563.995 742.332,582.501C742.235,706.967 742.826,894.396 742.825,894.5C742.284,951.88 747.246,958.449 733.452,960.286C728.861,960.897 283.453,960.455 279.5,960.46C242.584,960.508 239.308,962.517 236.682,953.474ZM266.512,598.514C280.651,597.779 602.05,598.427 713.526,598.165C715.162,599.683 714.915,600.056 714.913,649.5C714.904,930.372 715.035,930.635 714.275,931.222C713.203,932.047 436.362,931.451 270.5,931.622C268.142,931.624 268.031,932.041 266.282,930.574C265.66,926.205 266.121,734.065 265.949,600.499C266.137,599.838 266.324,599.176 266.512,598.514ZM265.949,600.499C266.121,734.065 265.66,926.205 266.282,930.574C263.711,929.998 264.587,923.182 264.593,920.499C264.771,848.67 264.523,604.626 264.944,601.509C265.008,601.038 265.885,600.97 265.949,600.499Z" style="fill:rgb(194,69,167);"/>
            <path d="M238.877,65.516C241.406,54.426 244.288,55.248 257.498,55.29C269.632,55.329 619.688,55.177 659.5,55.331C737.802,55.633 741.23,53.603 743.674,60.435C745.501,65.54 743.833,276.82 744.809,432.503C744.91,448.681 734.48,444.933 712.5,445.201C683.791,445.551 577.591,445.139 465.5,445.391C452.14,445.421 306.29,445.748 298.5,445.544C245.557,444.157 242.069,448.587 238.427,439.527C237.079,436.175 238.569,109.691 238.877,65.516ZM266.769,84.517C268.381,81.569 269.137,82.679 272.5,82.679C713.6,82.68 713.654,82.648 714.187,82.964C714.905,83.39 714.97,83.687 714.869,395.5C714.862,416.172 716.11,418.748 711.501,418.851C708.661,418.914 311.3,418.858 276.5,418.853C269.854,418.852 266.741,421.101 266.814,414.514L266.812,410.497L266.817,404.502C266.85,395.432 266.839,395.538 266.813,386.497C266.781,374.889 266.793,375.02 266.817,363.502C266.915,316.968 267.042,102.645 266.769,84.517Z" style="fill:rgb(225,163,211);"/>
            <path d="M440.51,955.853C424.826,955.911 249.005,956.555 244.454,955.663C240.268,954.842 241.019,952.67 241.018,849.5C241.017,576.703 239.402,575.531 242.467,573.462C243.123,573.019 243.055,571.93 288.503,571.867C434.842,571.965 581.181,572.063 727.52,572.162C732.238,572.161 733.025,570.201 736.142,573.789C739.136,577.236 737.398,578.006 738.065,697.5C738.177,717.5 738.88,843.354 738.086,947.498C738.006,957.938 733.255,955.905 708.5,955.907C619.17,955.889 529.84,955.871 440.51,955.853ZM266.512,598.514C280.651,597.779 602.05,598.427 713.526,598.165C715.162,599.683 714.915,600.056 714.913,649.5C714.904,930.372 715.035,930.635 714.275,931.222C713.203,932.047 436.362,931.451 270.5,931.622C268.142,931.624 268.031,932.041 266.282,930.574C265.66,926.205 266.121,734.065 265.949,600.499C266.137,599.838 266.324,599.176 266.512,598.514ZM265.949,600.499C266.121,734.065 265.66,926.205 266.282,930.574C263.711,929.998 264.587,923.182 264.593,920.499C264.771,848.67 264.523,604.626 264.944,601.509C265.008,601.038 265.885,600.97 265.949,600.499Z" style="fill:rgb(241,213,235);"/>
            <path d="M246.44,439.816C245.438,439.436 243.161,439.371 243.248,435.489C243.821,410.078 242.489,80.332 244.492,64.499C245.315,57.992 254.209,60.526 298.5,60.115C305.747,60.048 675.993,60.216 699.5,60.471C737.255,60.879 738.589,61.384 739.04,64.531C739.99,71.164 739.598,435.401 739.579,435.509C738.53,441.478 735.77,439.794 689.51,439.882C681.14,439.898 681.218,440.009 680.497,440.009C281.132,440.071 281.163,440.115 246.44,439.816ZM266.769,84.517C268.381,81.569 269.137,82.679 272.5,82.679C713.6,82.68 713.654,82.648 714.187,82.964C714.905,83.39 714.97,83.687 714.869,395.5C714.862,416.172 716.11,418.748 711.501,418.851C708.661,418.914 311.3,418.858 276.5,418.853C269.854,418.852 266.741,421.101 266.814,414.514L266.812,410.497L266.817,404.502C266.85,395.432 266.839,395.538 266.813,386.497C266.781,374.889 266.793,375.02 266.817,363.502C266.915,316.968 267.042,102.645 266.769,84.517Z" style="fill:rgb(242,216,236);"/>
            <path d="M260.451,593.466C260.855,593.002 263.189,590.317 267.499,590.39C299.414,590.93 299.351,590.743 666.5,590.52C716.483,590.489 717.976,589.905 719.799,594.382C720.411,595.886 720.139,795.757 720.103,887.5C720.085,932.459 721.467,935.982 713.425,937.014C710.849,937.344 459.574,937.18 437.5,937.166C265.326,937.053 264.649,937.947 261.652,935.325C259.15,933.136 259.27,932.55 259.303,868.5C259.441,599.428 258.292,599.155 260.451,593.466ZM266.512,598.514C280.651,597.779 602.05,598.427 713.526,598.165C715.162,599.683 714.915,600.056 714.913,649.5C714.904,930.372 715.035,930.635 714.275,931.222C713.203,932.047 436.362,931.451 270.5,931.622C268.142,931.624 268.031,932.041 266.282,930.574C265.66,926.205 266.121,734.065 265.949,600.499C266.137,599.838 266.324,599.176 266.512,598.514ZM265.949,600.499C266.121,734.065 265.66,926.205 266.282,930.574C263.711,929.998 264.587,923.182 264.593,920.499C264.771,848.67 264.523,604.626 264.944,601.509C265.008,601.038 265.885,600.97 265.949,600.499Z" style="fill:rgb(124,0,102);fill-opacity:1;"/>
            <path d="M260.08,86.508C260.207,85.731 261.316,78.959 265.449,78.255C266.487,78.078 646.376,78.19 679.5,78.199C717.161,78.21 720.701,76.859 721.223,84.512C721.653,90.81 721.392,318.18 721.369,338.499C721.277,418.437 722.506,419.941 718.36,422.173C714.963,424.001 428.688,422.732 403.499,422.62C265.871,422.01 263.908,424.656 260.74,419.394C259.373,417.123 260.468,201.891 260.08,86.508ZM266.769,84.517C268.381,81.569 269.137,82.679 272.5,82.679C713.6,82.68 713.654,82.648 714.187,82.964C714.905,83.39 714.97,83.687 714.869,395.5C714.862,416.172 716.11,418.748 711.501,418.851C708.661,418.914 311.3,418.858 276.5,418.853C269.854,418.852 266.741,421.101 266.814,414.514L266.812,410.497L266.817,404.502C266.85,395.432 266.839,395.538 266.813,386.497C266.781,374.889 266.793,375.02 266.817,363.502C266.915,316.968 267.042,102.645 266.769,84.517Z" style="fill:rgb(124,0,102);fill-opacity:1;"/>
            <path d="M47.299,709.499C47.628,701.128 47.131,698.553 55.499,698.429C85.019,697.992 84.926,698.378 87.482,698.266C95.666,697.906 86.714,660.016 93.757,654.871C96.387,652.949 136.647,654.273 137.498,654.507C146.552,656.995 140.276,692.121 142.766,696.369C145.48,700.998 180.109,695.894 184.125,699.899C187.706,703.47 186.752,742.449 185.548,745.524C183.177,751.579 148.504,747.399 143.904,749.993C141.021,751.618 144.271,784.046 141.459,790.476C139.101,795.867 96.678,793.105 95.421,792.699C87.045,789.997 93.041,757.78 90.527,751.484C88.979,747.605 59.7,751.182 51.44,748.712C46.333,747.184 47.296,745.232 47.299,709.499Z" style="fill:rgb(124,0,102);"/>
            <path d="M969.536,549.47C970.856,554.649 971.303,629.86 968.866,645.51C968.263,649.383 969.102,649.389 968.587,694.506C968.54,698.669 971.414,698.528 970.873,746.498C970.775,755.138 971.363,755.081 971.255,854.5C971.189,914.42 972.016,986.432 969.726,993.567C960.186,1023.3 945.178,1015.327 872.51,1016.789C850.194,1017.238 850.295,1015.22 593.503,1016.267C552.891,1016.432 553.014,1015.275 512.509,1016.101C489.809,1016.563 360.762,1015.449 250.501,1017.039C239.942,1017.191 239.959,1016.573 118.499,1016.59C53.722,1016.599 40.158,1017.49 31.428,1014.749C27.489,1013.513 18.064,1013.461 11.013,999.72C6.657,991.233 7.667,990.768 7.561,932.5C7.225,746.486 8.834,746.556 7.796,560.504C7.735,549.549 8.694,549.092 9.558,548.681C14.678,546.242 12.64,551.526 12.716,619.498C12.889,773.591 11.754,986.507 12.904,990.405C19.556,1012.937 38.254,1011.142 55.498,1011.452C120.723,1012.625 134.056,1009.888 179.498,1011.676C186.298,1011.943 624.693,1010.771 897.495,1011.73C941.721,1011.886 941.9,1012.655 945.432,1011.159C968.506,1001.387 965.303,990.953 965.152,946.501C964.813,846.463 964.878,846.545 964.924,746.501C964.943,703.386 963.936,668.423 964.665,640.5C964.884,632.099 964.511,584.599 965.014,570.522C965.655,552.599 962.331,546.348 969.536,549.47Z" style="fill:rgb(163,57,140);"/>
            <path d="M54.261,742.875C53.147,741.533 52.582,741.675 52.583,737.5C52.59,708.408 50.661,703.74 58.501,703.565C86.729,702.934 95.695,705.702 95.784,696.51C96.092,664.57 93.138,659.673 102.501,659.575C133.395,659.249 135.499,659.731 135.485,664.5C135.478,667.057 135.413,689.505 135.87,696.46C136.42,704.828 145.878,702.901 148.511,702.93C173.246,703.202 174.809,702.518 177.601,703.265C182.346,704.533 180.319,739.285 179.751,740.617C177.782,745.23 143.446,741.735 139.634,743.809C134.131,746.803 139.286,781.093 136.178,785.249C134.417,787.603 133.877,787.42 99.501,787.458C91.862,787.466 97.203,757.285 95.524,748.496C93.731,739.106 61.446,745.73 54.261,742.875Z" style="fill:rgb(243,219,237);"/>
            <path d="M968.658,43.621C969,42.355 968.401,27.016 963.464,21.539C954.26,11.33 950.489,12.559 914.5,12.477C863.697,12.361 37.928,11.274 32.611,12.765C8.989,19.389 13.606,40.988 13.357,59.498C13.058,81.66 10.557,423.986 11.275,470.497C11.316,473.152 6.167,475.207 6.337,467.491C7.606,410.022 6.138,300.977 8.835,104.505C9.609,48.171 9.356,46.492 8.604,41.509C8.559,41.207 9.007,26.846 15.533,19.527C28.627,4.842 31.351,8.007 85.501,7.573C138.608,7.148 612.66,7.313 658.5,7.328C681.622,7.337 940.334,7.426 947.517,8.301C955.901,9.321 961.947,13.426 968.75,21.313C969.148,21.775 973.917,32.926 973.623,35.505C972.745,43.222 972.079,43.723 971.939,44.24C971.507,44.076 970.987,44.482 970.555,44.318C969.694,43.992 970.108,43.537 969.293,43.237C968.834,43.069 969.105,43.785 968.658,43.621Z" style="fill:rgb(181,73,158);"/>
            <path d="M859.618,525.488C859.673,533.151 858.432,541.843 862.497,542.183C883.018,543.899 915.31,542.036 931.489,542.86C945.846,543.591 951.873,540.211 953.423,539.341C957.594,537.002 957.973,537.535 960.829,539.678C953.459,546.453 951.926,544.581 949.39,548.314C947.264,551.445 915.063,549.69 868.502,550.465C856.399,550.666 856.638,547.941 844.481,548.132C806.454,548.728 806.523,547.043 768.509,548.627C756.591,549.123 238.999,548.231 232.492,550.476C228.64,551.805 210.985,546.71 188.409,549.142C187.27,549.265 40.691,549.684 32.614,548.054C27.81,547.085 24.008,544.146 23.359,543.644C20.359,541.459 20.224,541.675 18.277,538.537C18.601,538.384 17.83,537.624 18.153,537.472C21.146,536.06 28.669,542.366 36.556,543.018C49.584,544.096 51.834,541.828 123.233,543.067C126.074,543.117 122.704,538.893 122.672,536.51C122.616,532.277 121.999,485.598 122.758,483.599C126.747,473.096 124.981,487.376 125.941,529.448C126.038,530.523 127.054,541.796 129.534,542.454C132.238,543.171 132.206,542.871 164.502,542.625C224.549,542.169 224.463,542.75 284.5,542.903C328.26,543.014 627.83,543.776 831.5,541.547C853.065,541.311 856.135,542.765 856.275,536.482C857.219,494.194 855.015,476.252 859.145,482.728C859.598,483.438 859.749,519.279 859.618,525.488Z" style="fill:rgb(124,0,102);"/>
            <path d="M968.658,43.621C969.105,43.785 968.834,43.069 969.293,43.237C970.108,43.537 969.694,43.992 970.555,44.318C970.987,44.482 971.507,44.076 971.939,44.24C972.693,47.289 971.351,47.345 972.52,83.499L973.973,84.5L974.027,85.5L974.043,86.5L974.061,87.5L974.077,88.5L974.077,89.5L974.161,90.5L974.189,91.5L974.189,92.5L974.198,93.5L974.198,94.5L974.225,95.5L974.274,96.5L974.3,97.5L974.387,98.5L974.425,99.5L974.486,100.5L974.486,102.5L974.594,103.5L974.601,104.5L974.601,105.5L974.444,106.5L974.3,107.5L974.319,108.5L974.31,109.5L974.419,110.5L974.582,111.5L974.673,112.5L974.748,113.5L974.818,114.5L974.894,115.5C976.098,120.97 974.946,121.033 975.954,185.5C976.926,247.718 975.527,279.336 976.595,467.496C976.663,479.452 956.518,476.717 890.499,477.457C858.633,477.814 857.012,478.168 857.081,475.491C857.145,472.991 858.755,474.123 903.498,473.398C949.272,472.656 971.411,476.938 971.49,466.5C971.584,454.019 970.877,454.067 970.375,310.498C970.278,282.914 968.405,174.454 968.851,117.413C968.87,114.94 968.402,115.022 968.377,86.499C968.375,84.418 968.358,64.863 968.164,60.482C967.632,48.441 966.513,48.252 968.658,43.621Z" style="fill:rgb(195,95,173);"/>
            <path d="M832.23,765.504C828.664,756.45 830.642,756.212 832.959,746.703C834.284,741.264 844.902,730.859 850.422,730.101C853.375,729.695 869.831,723.395 884.321,742.646C888.452,748.133 893.355,770.137 878.734,779.829C857.415,793.962 839.195,784.407 832.23,765.504Z" style="fill:rgb(189,108,171);"/>
            <path d="M943.56,705.501C943.09,709.536 942.793,726.341 917.472,731.342C902.063,734.385 875.248,709.472 889.9,687.7C893.742,681.99 893.779,680.286 904.655,674.759C907.936,673.092 909.11,674.662 921.506,673.832C927.501,673.43 936.511,684.241 937.525,685.458C945.148,694.604 943.641,697.65 943.56,705.501Z" style="fill:rgb(182,107,166);"/>
            <path d="M780.592,685.661C788.05,670.568 811.55,674.034 813.644,675.131C816.656,676.707 835.247,685.313 832.878,704.456C832.721,704.809 832.564,705.161 832.407,705.514C829.983,725.102 818.805,726.223 817.416,727.358C813.415,730.627 812.977,729.43 806.551,730.932C795.881,733.427 783.43,723.287 780.838,719.313C767.754,699.247 779.596,687.2 780.592,685.661Z" style="fill:rgb(188,107,170);"/>
            <path d="M883.103,663.309C859.781,693.231 819.993,663.014 831.874,637.615C838.774,622.866 841.429,624.436 851.725,618.832C861.431,613.549 901.797,627.365 883.103,663.309Z" style="fill:rgb(192,115,176);"/>
            <path d="M920.528,725.63C918.455,725.79 897.121,730.525 889.797,706.458C886.024,694.064 899.64,676.603 911.517,676.963C925.501,677.387 930.879,678.013 939.705,696.443C941.145,699.449 940.986,713.73 930.729,720.82C925.994,724.093 926.027,724.081 920.528,725.63Z" style="fill:rgb(243,219,238);"/>
            <path d="M858.504,671.625C834.6,669.423 822.495,641.464 846.62,624.85C849.716,622.718 853.822,621.477 854.483,621.278C865.117,618.065 896.308,634.596 879.189,661.274C873.401,670.293 860.347,671.46 858.504,671.625Z" style="fill:rgb(244,221,239);"/>
            <path d="M783.734,686.598C809.397,658.478 847.856,698.683 818.756,721.936C811.487,727.743 785.255,731.398 778.841,706.387C777.998,703.101 778.796,698.281 778.911,697.586C779.72,692.697 780.395,693.025 783.734,686.598Z" style="fill:rgb(243,220,238);"/>
            <path d="M834.834,763.149C833.621,757.269 833.704,757.257 835.415,751.464C837.572,744.16 837.013,743.591 845.142,737.035C846.023,736.324 850.104,733.033 858.492,732.335C872.922,731.135 895.891,751.783 878.96,772.862C867.894,786.638 842.933,783.583 836.294,767.561C835.366,765.321 835.921,765.241 834.834,763.149Z" style="fill:rgb(243,219,238);"/>
            <path d="M983.999,1.5L983.999,1022.5L982.528,1022.771C983.267,1015.563 983.999,1.5 983.999,1.5Z" style="fill:rgb(248,233,244);fill-opacity:0.26;"/>
            <path d="M798.446,951.402C778.297,958.131 771.006,937.537 779.844,927.85C795.422,910.775 818.242,938.292 798.446,951.402Z" style="fill:rgb(147,51,126);"/>
            <path d="M240.067,975.546L240.824,976.5L241.5,977.652L242.5,977.845L243.5,977.845C244.219,977.914 244.217,977.762 252.514,978.381L253.5,979.71L254.5,980.02L255.5,980.155L268.5,980.155C271.56,980.412 271.499,980.221 275.525,980.046C281.998,978.271 281.97,981.507 288.53,980.685C293.784,980.028 338.832,981.297 341.491,980.441C351.687,977.16 352.64,982.784 362.469,978.299C362.973,978.07 366.071,977.919 366.519,978.123C369.851,979.646 369.919,978.95 373.5,978.854C375.595,978.798 375.012,979.761 375.533,980.074C371.342,980.414 371.052,979.466 367.562,981.935C360.984,984.035 349.362,983.139 343.497,983.337C342.209,983.38 341.93,984.613 339.501,984.68C300.756,985.742 300.778,982.41 297.5,983.162C293.483,984.083 293.59,984.221 289.5,984.558C282.756,985.112 283.049,980.79 276.504,982.674C271.022,984.252 252.806,981.73 244.483,981.829C244.317,981.679 242.41,979.961 242.41,979.961C240.627,979.714 240.481,980.057 239.258,978.749C239.499,977.034 239.389,977.104 240.067,975.546Z" style="fill:rgb(218,142,202);"/>
            <path d="M801.238,876.751C801.642,880.855 802.958,881.215 801.155,887.017C787.819,902.096 771.931,882.963 782.696,872.673C784.58,870.872 789.315,869.174 792.468,869.715C797.635,870.6 800.783,875.975 801.238,876.751Z" style="fill:rgb(243,218,237);"/>
            <path d="M796.536,947.6C774.436,955.06 776.635,922.611 792.548,926.282C803.263,928.755 807.128,941.348 796.536,947.6Z" style="fill:rgb(242,216,237);"/>
            <path d="M266.769,84.517C267.042,102.645 266.915,316.968 266.817,363.502C265.391,358.636 265.707,358.513 265.611,147.5C265.583,86.762 265.652,86.675 266.769,84.517Z" style="fill:rgb(144,75,129);fill-opacity:0.71;"/>
            <path d="M803.692,874.455C802.537,876.73 802.632,876.796 802.445,876.912C802.099,877.124 801.584,876.539 801.238,876.751C800.783,875.975 797.635,870.6 792.468,869.715C789.315,869.174 784.58,870.872 782.696,872.673C771.931,882.963 787.819,902.096 801.155,887.017C803.247,886.601 803.235,886.528 803.415,886.568C804.204,886.743 803.731,887.332 804.571,887.518C789.655,910.07 763.278,884.392 781.707,868.832C782.331,868.305 785.932,865.265 791.501,865.925C799.351,866.855 803.101,873.422 803.692,874.455Z" style="fill:rgb(161,58,139);"/>
            <path d="M375.533,980.074C404.101,980.845 404.248,978.548 406.484,979.612C412.567,982.506 414.042,978.734 425.486,979.7C426.616,979.796 426.341,981.638 428.499,981.584C432.521,981.485 432.413,980.985 436.5,980.784C452.394,980.003 455.865,980.814 457.501,981.197L458.521,982.866L457.5,983.184L456.5,983.184L455.5,983.136L453.5,983.136L452.5,983.078L451.5,983.184L450.5,983.245L449.5,983.269L448.5,983.184L447.5,983.136L446.5,983.203L445.5,983.269L434.5,983.269L433.5,983.245L432.5,983.184L428.5,983.184C420.261,984.098 419.018,981.721 412.493,984.253C410.243,985.125 407.861,983.577 407.522,983.357C406.385,982.618 386.24,981.696 379.512,983.95C375.296,985.362 375.959,982.215 373.5,982.047C372.835,982.001 372.165,982.092 371.5,982.047L369.5,982.047C368.854,982.01 368.208,981.972 367.562,981.935C371.052,979.466 371.342,980.414 375.533,980.074Z" style="fill:rgb(219,143,203);"/>
            <path d="M843.322,932.5C843.389,932.826 843.456,933.151 843.524,933.477C843.644,934.269 843.765,935.062 843.886,935.855C841.957,938.497 844.332,938.109 847.555,938.385C853.609,938.903 846.073,941.66 835.506,940.662C828.298,939.981 824.563,942.482 824.387,938.498C824.132,932.74 821.664,928.192 831.447,928.739C837.605,929.084 836.149,931.499 836.407,937.595C844.275,940.367 837.378,929.811 842.521,928.848C849.345,927.57 848.553,930.609 847.95,930.914C847.691,931.046 842.948,931.323 842.834,931.9C842.784,932.153 843.372,932.247 843.322,932.5Z" style="fill:rgb(225,164,212);"/>
            <path d="M926.509,482.532C926.443,483.3 926.377,484.069 926.312,484.837C921.003,484.584 919.832,486.261 912.507,485.431C901.402,484.174 901.47,485.951 900.519,485.827C889.058,484.328 889.012,486.356 877.578,485.127C866.215,483.906 865.51,487.692 862.5,484.822C862.502,484.2 861.498,483.867 861.5,483.245C861.505,481.987 862.103,482.657 864.514,482.583C877.025,482.199 876.921,482.337 889.407,482.219C923.562,481.897 923.541,482.58 926.509,482.532Z" style="fill:rgb(241,214,235);"/>
            <path d="M543.529,980.967C538.587,981.359 531.399,983.475 526.475,982.819C521.97,982.218 522.064,982.2 517.5,982.78C514.706,983.135 511.968,982.489 511.5,982.379L475.5,982.379C473.595,982.236 473.606,982.203 473.443,982.225C466.001,983.225 466.07,983.287 458.521,982.866L457.501,981.197C479.353,978.178 521.432,983.743 532.468,978.292C534.585,977.246 537.778,979.273 539.5,979.338C540.499,979.376 541.573,978.964 542.5,979.338C543.095,979.579 542.934,980.727 543.529,980.967Z" style="fill:rgb(219,143,202);"/>
            <path d="M908.5,532.847C903.25,532.899 904.199,489.854 909.545,489.81C915.08,489.764 914.644,532.787 908.5,532.847Z" style="fill:rgb(70,22,60);"/>
            <path d="M663.511,980.713C679.947,980.589 679.969,980.694 683.504,979.713C684.892,979.328 684.907,980.233 701.5,980.183C703.712,980.456 718.046,980.793 719.486,980.827C721.583,980.876 721.426,979.293 727.444,980.127C730.484,980.548 733.007,980.427 733.49,980.404C735.926,980.288 735.22,981.661 735.59,981.929C728.305,983.531 728.178,983.609 727.618,983.955C727.2,984.214 727.219,983.739 721.5,983.326L720.5,983.278L719.5,983.278L718.5,983.118L715.5,983.118L714.5,983.066C710.806,982.362 710.871,982.609 667.5,982.609L663.5,982.609L662.486,981.438L663.511,980.713Z" style="fill:rgb(220,147,204);"/>
            <path d="M485.933,506.494C485.988,505.866 486.491,500.082 487.825,498.839C495.188,491.977 496.293,522.258 491.428,523.287C485.107,524.625 486.081,509.275 485.933,506.494Z" style="fill:rgb(42,13,36);"/>
            <path d="M925.524,532.847C918.392,534.343 920.431,489.741 925.197,489.81C929.452,489.872 930.044,531.899 925.524,532.847Z" style="fill:rgb(129,43,110);"/>
            <path d="M915.234,690.545C916.18,691.58 916.621,692.062 922.401,706.538C923.077,708.231 920.748,711.223 918.649,706.437C917.044,702.778 916.45,702.994 912.502,703.001C908.299,703.007 908.9,704.317 907.612,707.563C906.579,710.167 902.195,709.81 904.306,706.398C907.675,700.953 906.948,696.586 910.57,691.512C910.904,691.776 910.696,692.441 911.031,692.706C912.489,693.859 914.564,691.152 915.234,690.545Z" style="fill:rgb(223,157,209);"/>
            <path d="M864.176,932.007C864.999,935.03 864.754,935.005 865.113,938.455C865.295,940.2 863.388,940.277 860.523,940.604C847.21,942.127 850.841,928.821 857.504,928.575C858.217,928.549 865.273,928.288 866.424,928.782C869.947,930.294 864.477,931.917 864.176,932.007Z" style="fill:rgb(229,176,218);"/>
            <path d="M855.612,875.729L854.949,876.5C856.108,881.499 854.77,882.97 854.398,883.378C850.911,887.211 847.807,880.578 847.513,880.471C844.937,879.53 845.254,883.886 845.053,884.11C842.312,887.163 842.625,876.728 842.619,876.496C842.491,872.029 844.585,872.851 855.485,872.634C855.733,872.629 862.598,873.99 855.612,875.729Z" style="fill:rgb(229,176,218);"/>
            <path d="M80.673,242.355C75.425,234.184 83.885,232.057 85.52,232.153C95.792,232.755 91.757,251.907 80.673,242.355Z" style="fill:rgb(124,0,102);"/>
            <path d="M866.177,277.51C863.386,291.073 847.302,280.232 855.717,272.748C862.656,266.576 865.895,276.635 866.177,277.51Z" style="fill:rgb(124,0,102);"/>
            <path d="M80.572,273.537C85.407,266.387 90.853,271.288 92.177,274.593C95.816,283.675 76.622,286.871 80.572,273.537Z" style="fill:rgb(124,0,102);"/>
            <path d="M866.152,241.49C861.86,255.116 847.02,242.107 856.632,235.717C863.292,231.289 865.912,240.632 866.152,241.49Z" style="fill:rgb(124,0,102);"/>
            <path d="M816.861,277.511C817.13,276.635 820.132,266.855 827.283,272.77C835.541,279.6 819.785,291.532 816.861,277.511Z" style="fill:rgb(124,0,102);"/>
            <path d="M829.045,240.505C825.605,254.579 811.441,242.888 818.755,235.76C821.622,232.967 824.912,234.462 825.402,234.685C828.768,236.215 828.136,236.861 829.045,240.505Z" style="fill:rgb(124,0,102);"/>
            <path d="M165.348,275.502C163.851,289.024 146.726,278.264 154.9,270.969C156.45,269.586 159.514,269.022 161.35,269.85C164.833,271.421 164.501,271.886 165.348,275.502Z" style="fill:rgb(124,0,102);"/>
            <path d="M901.711,240.469C901.534,254.031 883.048,244.825 891.608,236.606C897.643,230.812 901.375,239.672 901.711,240.469Z" style="fill:rgb(124,0,102);"/>
            <path d="M889.765,276.54C889.937,276.071 891.329,272.255 893.518,271.543C894.044,271.372 897.735,270.171 900.331,272.677C908.738,280.792 889.771,289.906 889.765,276.54Z" style="fill:rgb(124,0,102);"/>
            <path d="M69.5,721.586C74.676,721.498 92.619,719.856 89.115,725.152C87.906,726.98 60.073,728.933 64.967,722.9C66.222,721.352 66.535,722.037 69.5,721.586Z" style="fill:rgb(202,90,178);"/>
            <path d="M165.37,238.516C165.001,251.39 146.903,243.265 154.764,234.738C157.049,232.26 160.309,232.884 160.401,232.917C163.92,234.194 165.179,237.949 165.37,238.516Z" style="fill:rgb(124,0,102);"/>
            <path d="M116.093,275.503C117.36,266.337 124.993,270.031 126.154,270.896C134.565,277.16 117.941,289.726 116.093,275.503Z" style="fill:rgb(124,0,102);"/>
            <path d="M116.084,239.484C117.483,231.776 123.389,232.715 126.16,234.898C134.461,241.439 117.993,252.991 116.084,239.484Z" style="fill:rgb(124,0,102);"/>
            <path d="M118.246,689.509C118.22,699.109 113.992,695.891 113.698,695.375C113.129,694.375 112.665,674.948 113.79,673.726C114.148,673.338 119.069,668.855 118.352,678.484C118.286,679.363 118.259,679.73 118.246,689.509Z" style="fill:rgb(201,88,176);"/>
            <path d="M147.505,721.442C151.338,721.472 171.509,720.17 165.491,725.49C164.005,726.804 138.553,727.989 143.443,722.457C144.909,720.799 145.203,721.625 147.505,721.442Z" style="fill:rgb(202,92,178);"/>
            <path d="M853.264,746.033C855.783,747.898 855.225,748.269 855.286,748.403C854.898,750.511 855.016,750.405 855.232,752.641C855.22,753.552 855.208,754.463 855.196,755.374C855.002,758.971 853.939,760.575 857.5,760.512C858.114,760.502 867.585,760.662 861.58,755.309C860.197,754.105 860.728,753.912 861.256,752.245C861.659,751.978 862.062,751.71 862.465,751.443C863.294,751.808 864.124,752.173 864.954,752.538C865.012,752.884 864.469,753.155 864.528,753.501C864.779,754.981 872.208,763.995 856.503,763.404C848.647,763.108 852.292,747.389 853.264,746.033Z" style="fill:rgb(222,152,206);"/>
            <path d="M114.24,753.476C114.675,751.749 114.624,751.738 114.71,751.61C120.006,743.731 119.356,772.271 117.823,773.925C112.889,779.254 114.212,758.622 114.24,753.476Z" style="fill:rgb(195,73,169);"/>
            <path d="M800.495,697.512C801.896,699.396 801.873,699.264 803.792,700.623C802.232,704.456 804.594,713.002 800.567,711.33C798.327,710.4 799.568,709.604 800.097,703.811C799.941,703.348 799.785,702.885 799.629,702.422C796.378,696.805 793.272,693.816 793.184,692.565C792.734,686.15 800.118,697.065 800.495,697.512Z" style="fill:rgb(223,158,209);"/>
            <path d="M745.464,956.472C747.868,958.169 747.501,958.49 747.45,961.517C748.049,962.07 747.857,962.095 748.507,962.493C748.911,962.741 749.075,963.457 749.549,963.459C749.957,963.461 749.899,962.498 750.307,962.5L749.47,961.404C751.008,958.27 751.195,955.186 753.33,957.587C753.438,957.709 754.575,963.893 750.69,967.755C747.303,964.42 747.154,964.046 742.486,964.525C742.143,964.56 741.752,965.07 741.5,964.835C741.173,964.53 741.714,963.805 741.388,963.5L741.099,962.12C743.663,959.523 743.569,959.582 745.464,956.472Z" style="fill:rgb(206,106,185);"/>
            <path d="M858.659,644.564C857.872,650.299 868.469,656.058 862.504,655.796C861.431,655.749 856.847,649.414 856.412,648.813C856.068,648.941 855.723,649.069 855.379,649.197C854.972,649.793 848.444,659.372 848.147,654.586C848.093,653.712 848.74,654.08 854.192,645.458C854.41,645.215 853.836,644.732 854.054,644.489C854.588,643.893 858.635,644.563 858.659,644.564Z" style="fill:rgb(224,160,210);"/>
            <path d="M858.659,644.564C858.635,644.563 854.588,643.893 854.054,644.489C853.836,644.732 854.41,645.215 854.192,645.458C848.942,638.343 849.089,638.117 849.493,637.497C851.395,634.575 851.66,637.536 854.794,641.207C857.208,644.036 859.049,636.02 861.583,637.184C863.361,638 862.119,639.687 858.659,644.564Z" style="fill:rgb(225,163,212);"/>
            <path d="M524.364,507.516C521.694,509.302 520.725,507.132 518.621,509.535C516.215,512.284 518.981,511.98 522.52,512.797C526.184,513.643 521.026,517.454 517.651,515.159C511.582,511.033 520.292,501.634 524.364,507.516Z" style="fill:rgb(233,188,223);"/>
            <path d="M401.46,532.009C404.556,531.818 405.05,531.321 410.492,531.647C419.459,532.184 420.079,530.552 423.489,533.92C412.162,534.586 412.22,534.045 406.5,533.634C405.17,533.539 403.769,534.044 402.5,533.634C401.888,533.437 402.072,532.207 401.46,532.009Z" style="fill:rgb(233,188,223);"/>
            <path d="M853.264,746.033C862.87,741.957 868.139,747.738 864.954,752.538C864.124,752.173 863.294,751.808 862.465,751.443C863.106,749.942 863.233,749.941 863.158,749.821C862.529,748.817 855.925,748.439 855.286,748.403C855.225,748.269 855.783,747.898 853.264,746.033Z" style="fill:rgb(230,179,219);"/>
            <path d="M820.725,930.467C820.432,930.665 820.799,931.305 820.507,931.503C820.241,931.683 820.297,930.579 816.497,931.48C812.03,932.539 820.24,934.501 820.389,934.56C822.723,937.728 821.184,938.851 820.67,939.64C819.933,939.127 819.195,938.613 818.457,938.1C819.948,936.47 818.674,936.276 816.475,935.692C815.481,935.626 814.487,935.56 813.493,935.494C810.751,928.557 817.166,926.566 820.725,930.467Z" style="fill:rgb(230,179,219);"/>
            <path d="M822.265,873.22C822.673,873.989 823.081,874.759 823.488,875.528C821.49,876.504 821.391,876.663 819.503,875.549C817.398,874.307 813.271,876.751 816.497,877.573C818.787,878.156 818.792,877.936 820.738,879.228C820.185,879.881 819.633,880.533 819.08,881.186C816.287,878.68 815.62,879.806 812.814,877.317C812.667,876.506 811.753,871.463 822.265,873.22Z" style="fill:rgb(230,180,220);"/>
            <path d="M60.508,555.473L61.5,554.97L66.5,554.97L67.5,554.861C71.016,555.076 70.922,554.943 74.452,554.762C79.895,554.482 79.67,555.407 81.526,556.696C75.313,557.743 75.32,556.903 62.489,556.89C61.829,556.417 61.168,555.945 60.508,555.473Z" style="fill:rgb(226,165,212);"/>
            <path d="M803.692,874.455C804.327,875.964 807.539,880.848 804.571,887.518C803.731,887.332 804.204,886.743 803.415,886.568C803.235,886.528 803.247,886.601 801.155,887.017C802.958,881.215 801.642,880.855 801.238,876.751C801.584,876.539 802.099,877.124 802.445,876.912C802.632,876.796 802.537,876.73 803.692,874.455Z" style="fill:rgb(212,122,192);"/>
            <path d="M252.514,978.381C254.273,978.346 273.234,977.977 274.5,978.393C275.116,978.596 274.909,979.844 275.525,980.046C271.499,980.221 271.56,980.412 268.5,980.155L255.5,980.155L254.5,980.02L253.5,979.71L252.514,978.381Z" style="fill:rgb(214,129,195);"/>
            <path d="M506.23,508.475C509.333,498.618 508.346,510.155 508.313,510.378C507.963,512.761 506.763,513.103 508.61,514.705C511.999,517.644 502.929,514.6 502.463,514.443C502.509,512.788 502.556,511.134 502.603,509.479C502.762,509.438 504.599,508.965 504.599,508.965C505.028,508.963 505.283,509.613 505.713,509.611C505.3,511.188 505.265,511.174 505.267,511.315C505.436,520.804 506.215,508.715 506.23,508.475Z" style="fill:rgb(234,192,225);"/>
            <path d="M855.196,755.374C858.443,756.069 861.084,755.429 861.58,755.309C867.585,760.662 858.114,760.502 857.5,760.512C853.939,760.575 855.002,758.971 855.196,755.374Z" style="fill:rgb(243,218,237);"/>
            <path d="M800.495,697.512C800.851,697.451 801.156,697.945 801.512,697.884C802.391,697.735 805.795,691.046 807.517,690.556C813.854,688.752 804.347,699.968 803.792,700.623C801.873,699.264 801.896,699.396 800.495,697.512Z" style="fill:rgb(223,155,208);"/>
            <path d="M827.436,933.566C826.432,931.089 827.79,931.157 830.446,931.26C834.675,931.423 833.359,933.237 833.485,937.493C832.799,939.203 832.231,938.37 829.535,938.336C827.262,938.306 826.567,937.711 827.753,935.778C832.16,935.157 831.743,933.914 831.42,933.836C830.127,933.521 828.729,933.881 827.436,933.566Z" style="fill:rgb(242,216,237);"/>
            <path d="M832.729,873.882C834.728,872.792 835.152,872.58 836.365,874.543C833.07,877.257 833.383,877.678 833.595,881.952C830.966,883.178 831.43,884.337 828.61,884.231C828.921,880.042 830.399,880.568 831.376,876.493C832.196,875.163 832.181,875.269 832.729,873.882Z" style="fill:rgb(227,169,214);"/>
            <path d="M861.58,932.323C860.03,942.884 854.914,936.105 854.924,935.472C854.999,930.675 856.922,931.5 861.58,932.323Z" style="fill:rgb(243,219,238);"/>
            <path d="M892.505,562.71C892.971,562.599 893.045,561.795 893.512,561.684C893.805,561.614 904.573,561.454 905.5,561.244L906.5,561.313L907.528,562.804C899.999,564.091 899.99,564.101 892.505,562.71Z" style="fill:rgb(229,174,217);"/>
            <path d="M855.286,748.403C855.925,748.439 862.529,748.817 863.158,749.821C863.233,749.941 863.106,749.942 862.465,751.443C862.062,751.71 861.659,751.978 861.256,752.245C858.516,751.776 855.699,752.518 855.232,752.641C855.016,750.405 854.898,750.511 855.286,748.403Z" style="fill:rgb(242,215,236);"/>
            <path d="M828.497,875.496C830.082,875.862 830.062,875.692 831.376,876.493C830.399,880.568 828.921,880.042 828.61,884.231C826.997,884.404 827.078,884.404 825.526,884.375C826.382,882.404 828.07,882.283 827.153,876.046L828.497,875.496Z" style="fill:rgb(240,211,234);"/>
            <path d="M60.508,555.473C61.168,555.945 61.829,556.417 62.489,556.89L61.5,557.747L60.5,558.145C55.321,559.114 55.246,559.095 50.481,556.978C50.957,556.846 51.024,556.034 51.5,555.902C55.872,554.693 55.929,556.092 60.508,555.473Z" style="fill:rgb(230,179,219);"/>
            <path d="M502.603,509.479C502.556,511.134 502.509,512.788 502.463,514.443C496.254,516.677 499.524,503.051 502.226,507.647C502.302,507.776 502.254,507.782 502.603,509.479Z" style="fill:rgb(227,169,215);"/>
            <path d="M812.472,880.486C815.624,880.781 815.293,882.304 818.421,882.049C819.163,882.586 819.906,883.124 820.649,883.662C820.024,883.981 812.644,887.744 812.472,880.486Z" style="fill:rgb(230,179,219);"/>
            <path d="M824.898,876.042C826.032,875.905 825.912,875.87 827.153,876.046C828.07,882.283 826.382,882.404 825.526,884.375C822.914,882.158 824.894,876.083 824.898,876.042Z" style="fill:rgb(234,190,224);"/>
            <path d="M812.6,936.57C813.327,936.77 814.054,936.97 814.782,937.17C816.459,938.197 816.421,938.223 818.457,938.1C819.195,938.613 819.933,939.127 820.67,939.64C818.339,941.237 812.137,942.441 812.6,936.57Z" style="fill:rgb(229,176,218);"/>
            <path d="M855.232,752.641C855.699,752.518 858.516,751.776 861.256,752.245C860.728,753.912 860.197,754.105 861.58,755.309C861.084,755.429 858.443,756.069 855.196,755.374C855.208,754.463 855.22,753.552 855.232,752.641Z" style="fill:rgb(232,186,222);"/>
            <path d="M913.555,699.874C911.871,699.656 909.053,699.5 912.255,695.15C914.012,692.764 918.25,698.685 913.555,699.874Z" style="fill:rgb(244,221,239);"/>
            <path d="M829.419,872.77C829.341,874.264 829.474,874.228 828.497,875.496L827.153,876.046C825.912,875.87 826.032,875.905 824.898,876.042C824.428,875.871 823.958,875.699 823.488,875.528C823.081,874.759 822.673,873.989 822.265,873.22C823.939,872.575 823.918,872.858 829.419,872.77Z" style="fill:rgb(225,162,211);"/>
            <path d="M960.438,109.876C962.188,110.536 962.215,110.226 963.793,111.142C964.296,111.434 964.692,110.703 964.615,111.271C964.498,112.136 963.726,111.632 963.608,112.509L963.677,113.744C960.671,114.836 956.795,114.203 959.426,110.274L960.438,109.876Z" style="fill:rgb(235,193,226);"/>
            <path d="M513.294,508.525C513.296,509.015 513.326,519.299 510.861,514.141C510.158,512.67 511.324,501.684 513.294,508.525Z" style="fill:rgb(229,176,218);"/>
            <path d="M836.365,874.543C837.297,875.622 837.834,876.972 837.925,877.201C834.917,878.83 835.798,879.504 835.618,882.081C834.943,882.038 834.269,881.995 833.595,881.952C833.383,877.678 833.07,877.257 836.365,874.543Z" style="fill:rgb(234,191,224);"/>
            <path d="M266.813,386.497C266.839,395.538 266.85,395.432 266.817,404.502C266.291,402.398 265.876,402.599 265.814,400.492C265.728,397.554 265.889,388.139 265.992,387.518C266.064,387.087 266.741,386.928 266.813,386.497Z" style="fill:rgb(99,32,85);fill-opacity:0.65;"/>
            <path d="M953.543,989.944C948.066,992.205 948.453,986.814 950.448,986.367C952.275,985.958 953,987.542 953.444,987.564C953.818,987.583 954.345,986.949 954.53,987.275C954.643,987.473 954.459,987.467 953.543,989.944Z" style="fill:rgb(243,220,238);"/>
            <path d="M915.234,690.545C914.564,691.152 912.489,693.859 911.031,692.706C910.696,692.441 910.904,691.776 910.57,691.512C912.129,688.16 913.785,687.185 915.234,690.545Z" style="fill:rgb(218,142,202);"/>
            <path d="M820.725,930.467C821.319,932.541 821.247,932.552 820.389,934.56C820.24,934.501 812.03,932.539 816.497,931.48C820.297,930.579 820.241,931.683 820.507,931.503C820.799,931.305 820.432,930.665 820.725,930.467Z" style="fill:rgb(239,208,232);"/>
            <path d="M812.814,877.317C815.62,879.806 816.287,878.68 819.08,881.186C818.86,881.473 818.641,881.761 818.421,882.049C815.293,882.304 815.624,880.781 812.472,880.486C813.465,879.012 813.299,878.969 812.814,877.317Z" style="fill:rgb(240,210,234);"/>
            <path d="M837.925,877.201C838.194,878.295 838.462,879.39 838.731,880.484C837.399,881.121 837.476,881.157 836.548,882.369L835.618,882.081C835.798,879.504 834.917,878.83 837.925,877.201Z" style="fill:rgb(227,169,214);"/>
            <path d="M829.419,872.77C830.522,873.141 831.626,873.511 832.729,873.882C832.181,875.269 832.196,875.163 831.376,876.493C830.062,875.692 830.082,875.862 828.497,875.496C829.474,874.228 829.341,874.264 829.419,872.77Z" style="fill:rgb(235,194,226);"/>
            <path d="M838.731,880.484C840.182,882.058 841.085,882.148 839.847,883.975C839.248,884.86 836.764,882.568 836.548,882.369C837.476,881.157 837.399,881.121 838.731,880.484Z" style="fill:rgb(232,185,222);"/>
            <path d="M775.129,653.472L776.515,654.5C775.763,657.509 776.161,657.463 776.624,660.494C776.179,659.76 774.988,660.475 774.811,657.5C774.811,657.5 775.104,653.794 775.129,653.472Z" style="fill:rgb(232,184,221);"/>
            <path d="M816.475,935.692C818.674,936.276 819.948,936.47 818.457,938.1C816.421,938.223 816.459,938.197 814.782,937.17C815.119,936.905 814.895,936.785 815.252,936.505C815.345,936.432 815.252,936.505 816.475,935.692Z" style="fill:rgb(242,215,236);"/>
            <path d="M820.738,879.228C822.081,881.404 822.191,881.623 820.649,883.662C819.906,883.124 819.163,882.586 818.421,882.049C818.641,881.761 818.86,881.473 819.08,881.186C819.633,880.533 820.185,879.881 820.738,879.228Z" style="fill:rgb(231,183,221);"/>
            <path d="M843.524,933.477C846.22,933.681 846.203,933.677 846.435,933.697C860.436,934.897 844.153,935.848 843.886,935.855C843.765,935.062 843.644,934.269 843.524,933.477Z" style="fill:rgb(228,172,216);"/>
            <path d="M772.686,888.498C774.514,891.203 774.534,891.469 773.051,894.438C770.93,891.044 772.268,889.644 772.686,888.498Z" style="fill:rgb(232,185,222);"/>
            <path d="M899.623,536.052C902.272,536.858 902.174,536.856 904.5,538.399L903.5,538.479L902.5,538.603L901.5,538.561L900.5,538.021L899.5,537.562L899.623,536.052Z" style="fill:rgb(218,142,202);"/>
            <path d="M827.436,933.566C828.729,933.881 830.127,933.521 831.42,933.836C831.743,933.914 832.16,935.157 827.753,935.778L827.436,933.566Z" style="fill:rgb(229,176,218);"/>
            <path d="M767.749,889.501C767.721,891.73 767.784,891.743 766.356,893.489C765.891,891.215 766.17,891.204 767.749,889.501Z" style="fill:rgb(224,159,210);"/>
            <path d="M273.509,557.317C273.744,557.356 276.448,557.806 276.448,557.806C276.863,558.122 277.003,558.788 277.491,558.974C277.828,559.103 278.166,558.463 278.503,558.592C277.506,558.846 276.508,559.1 275.511,559.353C274.844,558.675 274.176,557.996 273.509,557.317Z" style="fill:rgb(224,161,210);"/>
            <path d="M774.184,947.591L775.5,948.082C775.507,948.091 776.8,948.219 776.651,949.627C776.651,949.627 775.544,950.348 775.447,950.411C774.187,948.477 773.716,948.509 774.184,947.591Z" style="fill:rgb(236,198,228);"/>
            <path d="M813.493,935.494C814.487,935.56 815.481,935.626 816.475,935.692C815.252,936.505 815.345,936.432 815.252,936.505C814.895,936.785 815.119,936.905 814.782,937.17C814.054,936.97 813.327,936.77 812.6,936.57C812.898,936.211 813.195,935.853 813.493,935.494Z" style="fill:rgb(237,201,229);"/>
            <path d="M266.812,410.497L266.814,414.514C265.902,412.569 265.875,412.522 266.812,410.497Z" style="fill:rgb(99,31,84);fill-opacity:0.6;"/>
            <path d="M747.45,961.517C748.123,961.479 748.797,961.442 749.47,961.404L750.307,962.5C749.899,962.498 749.957,963.461 749.549,963.459C749.075,963.457 748.911,962.741 748.507,962.493C747.857,962.095 748.049,962.07 747.45,961.517Z" style="fill:rgb(209,114,188);"/>
            <path d="M506.23,508.475C506.215,508.715 505.436,520.804 505.267,511.315C505.265,511.174 505.3,511.188 505.713,509.611L506.23,508.475Z" style="fill:rgb(236,198,228);"/>
            <path d="M783.659,907.317C782.201,907.447 781.358,908.922 781.601,907.5C781.624,907.368 781.782,906.442 782.814,906.351C783.24,906.313 783.233,907.355 783.659,907.317Z" style="fill:rgb(242,213,235);"/>
            <path d="M851.5,881.487C851.648,881.35 855.196,878.067 853.823,880.5C853.724,880.676 853.651,880.573 851.5,881.487Z" style="fill:rgb(234,191,225);"/>
            <path d="M211.5,557.89C213.043,557.454 213.723,555.751 213.627,557.289C213.619,557.417 213.569,558.224 212.591,558.5C212.19,558.613 211.901,557.776 211.5,557.89Z" style="fill:rgb(241,213,235);"/>
            <path d="M748.545,553.698C749.941,552.984 749.961,553.069 751.501,553.463C750.516,553.541 749.53,553.62 748.545,553.698Z" style="fill:rgb(196,80,171);"/>
            <path d="M748.5,968.849C747.1,968.56 745.935,969.806 746.44,968.423C746.9,967.162 747.172,968.575 748.5,968.849Z" style="fill:rgb(211,121,192);"/>
            <path d="M117.86,534.331L118.5,535.599C118.287,535.177 118.073,534.754 117.86,534.331Z" style="fill:rgb(232,183,220);"/>
            <path d="M933.5,537.715C934.416,537.669 933.596,536.55 934.584,536.5C934.702,536.494 935.657,536.446 935.563,537.611C935.534,537.965 934.529,537.179 934.5,537.533L933.5,537.715Z" style="fill:rgb(213,126,194);"/>
            <path d="M901.383,532.231C901.443,532.866 901.947,532.558 902.01,533.23C902.11,534.298 901.529,533.224 900.54,533.214L901.383,532.231Z" style="fill:rgb(232,185,222);"/>
            <path d="M905.54,497.486C905.767,497.904 905.994,498.322 906.221,498.741L906.391,499.605L905.832,499.332L905.54,497.486Z" style="fill:rgb(200,100,179);"/>
            <path d="M852.322,533.5L853.729,534.5L853.5,535.066L852.691,534.5L852.322,533.5Z" style="fill:rgb(229,177,218);"/>
            <path d="M746.536,568.668C746.501,568.777 746.092,570.023 746.092,570.023C744.998,570.013 746.219,569.635 746.536,568.668Z" style="fill:rgb(228,172,216);"/>
            <path d="M234.462,977.525C234.704,978.863 235.941,979.941 234.774,979.246C234.774,979.246 234.487,977.663 234.462,977.525Z" style="fill:rgb(222,153,207);"/>
        </g>
    </g>
</svg>
