<?xml version="1.0" encoding="UTF-8" standalone="no"?><!DOCTYPE svg PUBLIC "-//W3C//DTD SVG 1.1//EN" "http://www.w3.org/Graphics/SVG/1.1/DTD/svg11.dtd"><svg width="100%" height="100%" viewBox="0 0 374 360" version="1.1" xmlns="http://www.w3.org/2000/svg" xmlns:xlink="http://www.w3.org/1999/xlink" xml:space="preserve" xmlns:serif="http://www.serif.com/" style="fill-rule:evenodd;clip-rule:evenodd;stroke-linecap:round;stroke-linejoin:round;stroke-miterlimit:1.5;"><g><ellipse cx="186.951" cy="179.716" rx="186.851" ry="179.489" style="fill:#ed98d2;"/><ellipse cx="179.749" cy="175.598" rx="92.577" ry="81.289" style="fill:#d73a87;stroke:#ed98d2;stroke-width:9.4px;"/><ellipse cx="180.172" cy="175.397" rx="61.017" ry="55.359" style="fill:#ef8686;"/><ellipse cx="173.94" cy="178.916" rx="17.182" ry="13.797" style="fill:#add6f9;stroke:#ed98d2;stroke-width:9.4px;"/><ellipse cx="135.983" cy="165.119" rx="13.635" ry="14.598" style="fill:#ed98d2;"/><ellipse cx="186.318" cy="143.13" rx="15.546" ry="14.527" style="fill:#ed98d2;"/><ellipse cx="225.567" cy="170.783" rx="12.488" ry="13.125" style="fill:#ed98d2;"/><ellipse cx="205.815" cy="197.416" rx="14.145" ry="13.508" style="fill:#ed98d2;"/><ellipse cx="158.284" cy="217.167" rx="17.84" ry="12.87" style="fill:#ed98d2;"/><ellipse cx="29.296" cy="194.406" rx="9.69" ry="7.901" style="fill:#d73a87;"/><ellipse cx="150.437" cy="328.491" rx="10.465" ry="9.546" style="fill:#d73a87;"/><ellipse cx="329.038" cy="234.333" rx="10.088" ry="7.284" style="fill:#d73a87;"/><ellipse cx="290.542" cy="57.873" rx="11.513" ry="9.955" style="fill:#d73a87;"/><ellipse cx="110.679" cy="47.589" rx="10.403" ry="10.284" style="fill:#d73a87;"/><path d="M245.667,112.841c0,0 5.235,-9.683 9.368,-13.117c4.763,-3.957 14.807,-6.703 22.065,-7.634c7.943,-1.019 17.072,-0.593 25.594,1.517c7.799,1.932 15.801,4.8 22.683,8.156c6.63,3.233 12.947,8.954 17.11,13.881c4.024,4.763 6.388,13.033 7.187,19.216c0.807,6.244 0.361,13.977 -1.257,20.423c-1.826,7.277 -4.35,12.865 -9.022,19.704c-4.672,6.839 -10.806,13.318 -16.838,18.202c-5.523,4.473 -12.912,8.099 -19.352,11.107c-6.669,3.114 -13.941,6.626 -19.845,6.626c-4.863,0 -15.58,-6.626 -15.58,-6.626c0,0 7.428,-19.611 8.506,-29.309c0.826,-7.43 -0.275,-19.558 -2.039,-26.568c-1.764,-7.01 -5.819,-16.401 -10.582,-21.945c-4.763,-5.545 -17.996,-13.633 -17.996,-13.633Z" style="fill:#ccf234;"/><path d="M140.443,96.051c0,0 -0.399,-11.413 0.246,-18.702c0.706,-7.977 3.079,-16.803 6.967,-24.675c3.558,-7.204 6.674,-11.685 12.718,-16.385c6.318,-4.913 13.358,-6.487 19.063,-9.497c5.514,-2.91 12.044,-6.274 18.255,-5.729c6.272,0.55 15.469,1.12 21.419,4.082c6.716,3.343 10.221,3.091 15.899,9.12c5.679,6.029 10.693,13.409 14.171,20.347c3.186,6.354 5.144,14.348 6.702,21.283c1.613,7.181 0.44,12.318 -0.825,18.086c-1.042,4.75 -12.339,13.527 -12.339,13.527c0,0 -11.991,-8.468 -21.232,-11.599c-7.081,-2.399 -22.968,-7.03 -30.194,-6.809c-7.225,0.22 -25.795,1.286 -33.009,2.461c-8.747,1.425 -17.84,4.49 -17.84,4.49Z" style="fill:#ccf234;"/><path d="M132.205,100.263c0,0 -9.79,-11.418 -16.14,-15.054c-6.95,-3.979 -15.548,-7.076 -24.229,-8.385c-7.945,-1.198 -13.403,-1.201 -20.714,1.072c-7.642,2.377 -12.957,4.753 -18.688,7.714c-5.539,2.862 -12.032,8.799 -15.135,14.207c-3.133,5.461 -8.356,9.855 -9.326,16.429c-1.095,7.422 -2.87,13.633 -1.168,21.739c1.702,8.106 5.11,14.371 8.815,21.192c3.393,6.245 23.383,20.932 28.838,23.19c4.494,1.86 20.17,-2.65 20.17,-2.65c0,0 -0.809,-19.101 1.904,-28.474c2.078,-7.181 4.966,-13.947 9.276,-19.75c4.31,-5.803 16.014,-15.648 22.298,-20.135c7.213,-5.15 14.098,-11.095 14.098,-11.095Z" style="fill:#ccf234;"/><path d="M85.691,191.671c0,0 -18.673,7.345 -23.521,13.252c-5.305,6.465 -10.053,14.752 -13.038,23.403c-2.732,7.918 -5.494,14.506 -4.651,22.322c0.881,8.171 2.383,15.326 4.216,21.638c1.771,6.101 13.932,20.443 21.131,25.525c6.146,4.338 19.116,6.94 27.506,6.477c8.39,-0.463 15.282,-2.955 22.782,-5.664c6.868,-2.48 26.402,-16.655 30.182,-21.531c4.25,-5.482 6.035,-17.279 6.035,-17.279c0,0 -20.17,-8.102 -28.964,-12.343c-6.738,-3.249 -14.604,-10.826 -19.539,-16.136c-4.934,-5.31 -10.924,-14.357 -14.167,-21.473c-3.722,-8.168 -7.974,-18.191 -7.974,-18.191Z" style="fill:#ccf234;"/><path d="M160.272,262.965c0,0 4.334,23.18 7.823,29.978c3.819,7.44 24.409,26.925 31.915,29.263c7.847,2.444 19.902,4.73 26.422,5.562c6.302,0.804 28.377,-3.419 35.904,-8.001c6.426,-3.911 15.199,-14.366 18.114,-22.247c2.915,-7.881 8.266,-19.545 8.767,-27.503c0.459,-7.288 -3.953,-32.073 -6.922,-37.482c-3.337,-6.081 -15.216,-15.622 -15.216,-15.622c0,0 -21.85,20.253 -29.241,26.632c-5.662,4.888 -14.386,9.767 -21.221,12.18c-6.835,2.413 -17.383,7.161 -25.202,7.302c-8.975,0.163 -31.143,-0.062 -31.143,-0.062Z" style="fill:#ccf234;"/></g></svg>