<?xml version="1.0" encoding="UTF-8" standalone="no"?><!DOCTYPE svg PUBLIC "-//W3C//DTD SVG 1.1//EN" "http://www.w3.org/Graphics/SVG/1.1/DTD/svg11.dtd"><svg width="100%" height="100%" viewBox="0 0 365 325" version="1.1" xmlns="http://www.w3.org/2000/svg" xmlns:xlink="http://www.w3.org/1999/xlink" xml:space="preserve" xmlns:serif="http://www.serif.com/" style="fill-rule:evenodd;clip-rule:evenodd;stroke-linecap:round;stroke-linejoin:round;stroke-miterlimit:1.5;"><g><ellipse cx="182.379" cy="162.258" rx="182.195" ry="162.066" style="fill:#fdeda1;stroke:#df629f;stroke-width:0.24px;"/><ellipse cx="189.859" cy="163.221" rx="145.948" ry="138.706" style="fill:#ed98d2;stroke:#ef8686;stroke-width:0.24px;"/><circle cx="193.635" cy="163.988" r="20.389" style="fill:#f5c5a7;stroke:#ed98d2;stroke-width:0.24px;"/><ellipse cx="193.063" cy="163.28" rx="10.684" ry="10.458" style="fill:#ed98d2;stroke:#ef8686;stroke-width:0.24px;"/><path d="M175.374,119.069c-1.522,-4.166 -1.573,-13.355 -1.343,-19.507c0.267,-7.136 2.769,-15.003 6.072,-22.632c3.303,-7.628 8.105,-13.695 12.961,-18.916c3.992,-4.292 12.35,-6.586 12.842,-6.628c5.883,-0.496 15.856,1.53 19.207,5.53c3.631,4.334 4.196,11.292 4.065,18.325c-0.141,7.558 -2.179,15.511 -5.331,23.223c-3.279,8.022 -10.104,18.434 -14.356,23.476c-2.371,2.811 -6.244,5.837 -10.218,6.84c-4.518,1.14 -11.094,1.621 -14.866,0.481c-2.849,-0.861 -8.011,-7.397 -9.032,-10.192Z" style="fill:#add6f9;stroke:#ef8686;stroke-width:0.24px;"/><path d="M292.358,127.627c-2.197,3.853 -7.895,8.611 -12.74,12.41c-5.62,4.405 -12.769,7.78 -20.726,10.186c-7.957,2.406 -13.393,3.47 -20.515,3.135c-4.767,-0.224 -15.879,-2.209 -21.064,-4.71c-1.183,-0.571 -5.869,-3.839 -5.903,-3.924c-2.596,-6.598 11.058,-23.47 16.512,-27.913c5.86,-4.775 13.147,-6.882 21.07,-9.457c8.242,-2.679 21.456,-2.212 28.322,-1.007c3.622,0.636 12.116,-0.746 15.449,1.64c3.789,2.713 3.084,3.559 4.65,7.174c1.183,2.731 -3.58,9.88 -5.054,12.465Z" style="fill:#add6f9;stroke:#ef8686;stroke-width:0.24px;"/><path d="M291.7,202.511c-3.616,2.569 -10.788,4.483 -16.783,5.886c-6.953,1.627 -14.858,1.676 -23.088,0.505c-8.23,-1.17 -13.608,-2.497 -19.926,-5.801c-4.229,-2.212 -12.995,-7.074 -16.274,-11.542c-0.907,-1.236 -5.133,-7.66 -0.913,-14.068c5.698,-8.652 16.264,-9.077 23.169,-10.419c7.833,-1.523 17.377,-0.449 25.647,0.554c8.604,1.044 17.266,6.274 22.985,10.26c3.017,2.103 10.88,4.598 12.897,8.166c2.293,4.057 2.39,4.277 2.197,8.212c-0.162,3.313 -7.484,6.523 -9.91,8.246Z" style="fill:#add6f9;stroke:#ef8686;stroke-width:0.24px;"/><path d="M87.582,193.48c2.132,-3.889 7.749,-8.743 12.53,-12.622c5.545,-4.499 12.636,-7.994 20.551,-10.534c7.915,-2.54 13.333,-3.694 20.46,-3.48c4.771,0.144 15.37,-0.153 20.272,2.436c1.355,0.716 7.371,5.495 6.372,13.103c-1.349,10.272 -10.67,15.266 -16.296,19.488c-6.383,4.79 -15.438,7.989 -23.316,10.697c-8.196,2.817 -17.428,4.51 -24.313,3.421c-3.632,-0.575 -12.298,-0.742 -16.182,-2.054c-4.341,-1.467 -6.635,-2.635 -6.913,-7.189c-0.202,-3.311 5.405,-10.656 6.836,-13.265Z" style="fill:#add6f9;stroke:#ef8686;stroke-width:0.24px;"/><path d="M110.541,98.411c4.275,-1.18 10.488,0.988 16.602,1.715c7.091,0.844 14.538,3.496 21.874,7.405c7.336,3.909 11.939,6.991 16.75,12.253c3.221,3.522 10.818,10.92 12.376,16.239c0.431,1.471 1.193,9.116 -4.961,13.7c-8.308,6.188 -18.385,2.981 -25.334,1.886c-7.883,-1.242 -14.544,-4.833 -21.976,-8.599c-7.731,-3.917 -15.04,-9.867 -19.055,-15.565c-2.118,-3.006 -7.36,-10.184 -9.124,-13.884c-1.972,-4.136 -1.888,-11.325 1.186,-14.697c2.234,-2.452 8.792,0.339 11.661,-0.453Z" style="fill:#add6f9;stroke:#ef8686;stroke-width:0.24px;"/><path d="M190.757,273.042c-3.392,-2.857 -12.955,-7.21 -16.828,-11.649c-4.695,-5.381 -10.072,-14.387 -11,-22.648c-0.928,-8.261 3.822,-19.711 5.438,-26.655c1.082,-4.648 9.251,-13.508 12.756,-17.802c0.969,-1.187 8.916,-5.368 16.178,-2.888c9.804,3.349 17.083,9.84 20.113,16.189c3.437,7.202 5.209,20.173 4.452,28.853c-0.753,8.634 -1.243,16.936 -4.26,24.737c-1.326,3.43 -4.935,8.392 -7.884,11.238c-3.353,3.236 -5.653,3.554 -9.511,4.353c-3.248,0.673 -7.176,-1.811 -9.452,-3.728Z" style="fill:#add6f9;stroke:#ef8686;stroke-width:0.24px;"/></g></svg>