<?xml version="1.0" encoding="UTF-8" standalone="no"?><!DOCTYPE svg PUBLIC "-//W3C//DTD SVG 1.1//EN" "http://www.w3.org/Graphics/SVG/1.1/DTD/svg11.dtd"><svg width="100%" height="100%" viewBox="0 0 293 285" version="1.1" xmlns="http://www.w3.org/2000/svg" xmlns:xlink="http://www.w3.org/1999/xlink" xml:space="preserve" xmlns:serif="http://www.serif.com/" style="fill-rule:evenodd;clip-rule:evenodd;stroke-linecap:round;stroke-linejoin:round;stroke-miterlimit:1.5;"><g><ellipse cx="146.371" cy="142.352" rx="146.284" ry="142.322" style="fill:#98cbf8;"/><ellipse cx="196.154" cy="25.154" rx="7.689" ry="7.726" style="fill:#d73a87;"/><ellipse cx="266.288" cy="80.866" rx="7.689" ry="7.726" style="fill:#d73a87;"/><ellipse cx="275.903" cy="180.41" rx="7.689" ry="7.726" style="fill:#d73a87;"/><ellipse cx="211.142" cy="247.999" rx="7.689" ry="7.726" style="fill:#d73a87;"/><ellipse cx="102.83" cy="264.401" rx="7.689" ry="7.726" style="fill:#d73a87;"/><ellipse cx="26.475" cy="182.673" rx="7.689" ry="7.726" style="fill:#d73a87;"/><ellipse cx="26.475" cy="101.51" rx="7.689" ry="7.726" style="fill:#d73a87;"/><ellipse cx="91.801" cy="35.335" rx="7.689" ry="7.726" style="fill:#d73a87;"/><path d="M171.296,80.888c0,0 -0.357,-0.185 -1.186,-0.442c-2.439,-0.758 -8.963,-2.152 -22.506,-1.352c-14.102,0.832 -13.975,1.742 -23.243,4.801c-0.278,0.092 -0.583,-0.002 -0.762,-0.234c-4.795,-6.289 -13.309,-20.102 -12.765,-30.989c1.082,-21.639 16.581,-33.697 35.548,-33.697c18.967,0 34.901,9.755 36.521,28.253c0.598,6.833 -0.68,27.322 -11.607,33.66Z" style="fill:#d73a87;"/><path d="M223.928,158.409c0,0 -2.396,2.095 -3.643,-16.041c-0.969,-14.092 -1.722,-11.345 -4.865,-20.495c-0.096,-0.277 -0.006,-0.584 0.224,-0.765c6.433,-5.074 24.997,-19.172 35.894,-18.733c21.649,0.872 35.046,11.257 35.733,30.029c0.633,17.296 -5.211,23.361 -24.06,30.17c-4.598,1.661 -29.391,2.623 -39.282,-4.164Z" style="fill:#d73a87;"/><path d="M183.967,196.157c0,0 10.036,-1.351 22.123,-13.757c10.302,-10.574 11.604,-7.374 15.436,-16.265c0.116,-0.266 0.386,-0.432 0.676,-0.413c7.953,0.559 25.455,4.611 31.252,13.844c6.946,11.063 12.201,27.659 -0,42.331c-12.127,14.584 -23.171,15.327 -40.431,12.005c-3.741,-0.72 -13.38,-5.89 -17.842,-12.128c-3.285,-4.593 -11.133,-19.826 -11.214,-25.617Z" style="fill:#d73a87;"/><path d="M208.763,110.933c0,0 3.619,0.756 -10.989,-10.064c-11.356,-8.411 -9.365,-13.906 -18.368,-17.708c-0.265,-0.112 -0.432,-0.378 -0.418,-0.665c0.488,-7.867 6.05,-23.14 13.56,-31.043c14.423,-15.181 33.034,-19.028 47.583,-6.859c14.55,12.168 13.709,22.081 5.691,41.798c-2.584,6.354 -24.912,30.501 -37.058,24.543Z" style="fill:#d73a87;"/><path d="M84.265,124.948c0,0 -2.244,0.269 -2.736,18.441c-0.382,14.12 -0.326,12.414 1.897,21.853c0.067,0.286 -0.054,0.583 -0.302,0.74c-6.674,4.109 -21.019,8.323 -31.796,6.702c-20.707,-3.115 -35.936,-15.281 -34.307,-34.178c1.63,-18.897 8.751,-21.741 29.503,-26.474c6.687,-1.525 31.88,1.994 37.741,12.916Z" style="fill:#d73a87;"/><path d="M92.239,115.056c0,0 -1.088,-2.097 10.937,-15.73c9.345,-10.594 4.744,-7.723 12.696,-13.067c0.241,-0.162 0.354,-0.457 0.284,-0.739c-1.931,-7.766 -5.932,-25.853 -14.928,-32.015c-17.276,-11.834 -44.304,-10.515 -53.981,5.798c-9.741,16.422 -2.425,28.881 8.757,43.052c6.683,8.47 24.503,16.698 36.235,12.701Z" style="fill:#d73a87;"/><path d="M123.242,194.193c0,0 -2.708,3.262 -15.53,-9.415c-10.046,-9.932 -9.492,-5.481 -13.798,-14.083c-0.13,-0.259 -0.409,-0.409 -0.697,-0.374c-8.182,1.087 -32.478,7.533 -39.771,15.642c-14.004,15.569 -14.761,37.144 -0.428,49.567c14.302,12.396 28.311,11.374 44.062,3.081c9.546,-5.027 23.601,-30.872 26.163,-44.418Z" style="fill:#d73a87;"/><path d="M129.988,207.897c0,0 4.634,-10.786 22.79,-11.695c14.117,-0.707 14.701,7.264 24.033,4.561c0.273,-0.078 0.565,0.02 0.736,0.247c4.841,6.54 15.841,25.863 15.199,36.752c-1.275,21.629 -15.676,36.235 -34.642,36.066c-18.967,-0.169 -38.705,-10.065 -40.16,-28.577c-0.537,-6.838 3.101,-30.469 12.043,-37.353Z" style="fill:#d73a87;"/><ellipse cx="152.778" cy="144.341" rx="72.688" ry="66.944" style="fill:#fdeda1;stroke:#98cbf8;stroke-width:0.24px;"/><path d="M145.92,150.154c1.037,-0.673 2.423,-3.129 4.711,-6.337c0.324,-0.455 0.322,-0.458 0.728,-0.842c0.241,-0.228 1.617,-1.531 3.873,-1.492c1.098,0.019 1.924,0.379 2.08,0.447c0.162,0.07 1.03,0.449 1.804,1.266c0.228,0.241 1.531,1.615 1.492,3.872c-0.019,1.098 -0.379,1.925 -0.447,2.081c-0.306,0.703 -0.349,0.68 -0.777,1.314c-2.612,3.871 -4.505,7.754 -8.714,9.857c-4.917,2.456 -12.22,0.576 -15.881,-2.963c-3.923,-3.792 -3.796,-9.34 -3.682,-12.486c0.088,-2.435 0.124,-2.748 0.152,-2.986c0.638,-5.503 5.725,-12.125 10.637,-14.811c0.019,-0.011 1.657,-1.016 5.117,-1.786c0.739,-0.164 3.483,-0.794 7.521,-0.678c0.722,0.021 7.653,0.142 12.616,3.399c5.004,3.283 9.037,9.97 9.738,16.374c0.02,0.18 1.521,11.772 -4.048,20.111c-3.766,5.64 -11.354,11.29 -18.622,13.164c-6.966,1.796 -15.529,1.07 -20.591,-0.871c-6.506,-2.494 -11.677,-7.918 -13.018,-9.367c-5.152,-5.564 -5.93,-12.574 -6.036,-13.305c-1.999,-13.789 0.4,-19.475 1.922,-22.653c2.758,-5.756 8.842,-13.925 16.555,-18.216c7.829,-4.355 18.682,-6.484 28.803,-3.426c9.622,2.907 21.478,10.631 26.762,19.613c6.254,10.632 6.475,26.268 4.646,33.793c-0.749,3.08 -3.152,11.194 -13.622,20.707c-7.051,6.406 -18.972,12.326 -27.488,14.244c-7.688,1.731 -16.87,1.54 -24.639,-1.509c-2.345,-0.92 -8.511,-3.521 -17.282,-11.304c-2.508,-2.226 -11.688,-10.701 -15.789,-20.478c-3.588,-8.556 -3.446,-17.394 -3.529,-21.255c-0.073,-3.368 -0.101,-4.442 0.007,-6.981c0.38,-8.955 2.094,-14.631 4.919,-19.278c2.616,-4.302 6.618,-8.953 11.426,-13.219c0.058,-0.052 3.177,-2.62 7.284,-5.09c3.155,-1.898 5.201,-2.731 5.586,-2.934c2.715,-1.43 6.893,-3.292 12.995,-4.75c0.089,-0.021 2.832,-0.65 6.913,-1.148c1.377,-0.168 5.258,-0.593 8.449,-0.635c8.345,-0.109 21.331,1.722 29.498,5.349c0.098,0.043 2.773,1.225 6.32,3.4c7.892,4.839 14.926,11.337 19.327,17.851c1.39,2.057 3.623,5.603 4.774,12.85c0.972,6.115 0.808,12.11 1.728,17.389c0.033,0.412 0.108,0.822 0.101,1.236c-0.006,0.371 -0.043,2.491 -1.84,4.263c-0.27,0.267 -1.832,1.807 -4.408,1.764c-0.371,-0.006 -2.49,-0.041 -4.262,-1.839c-0.863,-0.875 -1.241,-1.81 -1.313,-1.986c-0.281,-0.694 -0.259,-0.703 -0.396,-1.439c-1.693,-9.069 -0.682,-19.227 -4.698,-24.864c-0.002,-0.003 -0.496,-0.652 -1.202,-1.466c-4.878,-5.629 -12.427,-10.852 -19.542,-13.716c-0.153,-0.061 -3.86,-1.836 -12.15,-2.993c-4.704,-0.657 -9.638,-0.922 -13.162,-0.629c-6.148,0.511 -9.273,1.302 -11.13,1.691c-4.432,0.929 -7.368,2.127 -9.202,3.011c-0.14,0.068 -1.821,1.092 -4.099,2.998c-2.468,2.064 -4.132,3.884 -4.391,4.122c-4.836,4.433 -7.783,8.638 -8.691,10.741c-1.753,4.062 -1.625,10.16 -1.673,12.688c-0.009,0.483 -0.016,0.826 -0.056,6.042c-0.074,9.7 2.123,13.771 3.949,16.691c3.527,5.638 9.176,11.348 14.261,15.246c5.638,4.322 9.124,5.222 11.714,5.704c7.231,1.346 13.147,-0.515 13.479,-0.609c5.283,-1.485 13.819,-5.215 19.248,-9.963c9.135,-7.99 9.761,-13.806 9.989,-15.323c1.049,-6.997 0.192,-17.492 -3.679,-23.246c-4.009,-5.958 -13.747,-12.484 -20.913,-13.951c-6.713,-1.374 -14.511,0.423 -19.382,3.901c-3.393,2.423 -5.928,5.697 -6.438,6.351c-2.015,2.586 -3.121,4.838 -3.342,5.287c-0.775,1.577 -1.474,3.239 -1.631,6.873c-0.033,0.752 -0.191,4.026 0.727,9.804c0.444,2.793 1.653,5.181 3.048,6.674c0.405,0.433 5.134,5.525 9.8,6.708c3.552,0.901 9.669,1.23 14.038,-0.542c4.169,-1.69 8.93,-5.545 10.487,-8.758c1.696,-3.499 1.771,-8.747 1.398,-11.393c-0.411,-2.918 -2.84,-6.666 -4.815,-7.508c-2.494,-1.063 -5.922,-1.296 -8.843,-0.929c-1.194,0.15 -1.857,0.222 -3.311,0.671l-0,-0.001l-0.001,-0.002c-1.035,0.328 -3.945,3.062 -4.828,5.604l-0.004,-0.001c-0.223,3.194 -0.353,4.675 -0.028,5.898c-0,0 -0,0 -0,0c0.411,0.307 1.597,0.909 2.975,0.906Zm-2.94,-6.896l0,-0.002c-0,0.001 -0,0.001 -0,0.002Z" style="fill:#ed98d2;"/></g></svg>