<?xml version="1.0" encoding="UTF-8" standalone="no"?><!DOCTYPE svg PUBLIC "-//W3C//DTD SVG 1.1//EN" "http://www.w3.org/Graphics/SVG/1.1/DTD/svg11.dtd"><svg width="100%" height="100%" viewBox="0 0 311 309" version="1.1" xmlns="http://www.w3.org/2000/svg" xmlns:xlink="http://www.w3.org/1999/xlink" xml:space="preserve" xmlns:serif="http://www.serif.com/" style="fill-rule:evenodd;clip-rule:evenodd;stroke-linecap:round;stroke-linejoin:round;stroke-miterlimit:1.5;"><g><ellipse cx="154.97" cy="154.377" rx="154.944" ry="154.174" style="fill:#fdeda1;"/><ellipse cx="275.316" cy="102.627" rx="10.676" ry="10.019" style="fill:#ef8686;"/><ellipse cx="285.213" cy="149.982" rx="9.897" ry="9.198" style="fill:#ef8686;"/><ellipse cx="285.213" cy="190.453" rx="9.897" ry="8.672" style="fill:#ef8686;"/><ellipse cx="242.814" cy="258.122" rx="9.198" ry="9.066" style="fill:#ef8686;"/><ellipse cx="211.804" cy="281.117" rx="9.198" ry="8.672" style="fill:#ef8686;"/><ellipse cx="161.611" cy="288.869" rx="8.935" ry="7.752" style="fill:#ef8686;"/><ellipse cx="119.563" cy="281.117" rx="9.986" ry="8.672" style="fill:#ef8686;"/><ellipse cx="78.962" cy="265.284" rx="9.329" ry="7.161" style="fill:#ef8686;"/><ellipse cx="45.849" cy="234.077" rx="9.592" ry="9.198" style="fill:#ef8686;"/><ellipse cx="17.741" cy="194.999" rx="8.814" ry="9.014" style="fill:#ef8686;"/><ellipse cx="19.255" cy="141.4" rx="10.328" ry="9.55" style="fill:#ef8686;"/><ellipse cx="32.576" cy="99.263" rx="10.246" ry="9.198" style="fill:#ef8686;"/><ellipse cx="56.395" cy="62.997" rx="10.546" ry="10.512" style="fill:#ef8686;"/><ellipse cx="85.016" cy="34.813" rx="9.057" ry="8.738" style="fill:#ef8686;"/><ellipse cx="136.251" cy="22.001" rx="9.855" ry="8.147" style="fill:#ef8686;"/><ellipse cx="175.145" cy="22.001" rx="8.804" ry="8.147" style="fill:#ef8686;"/><ellipse cx="267.893" cy="227.651" rx="7.455" ry="7.598" style="fill:#ef8686;"/><ellipse cx="208.593" cy="36.042" rx="9.087" ry="9.967" style="fill:#ef8686;"/><ellipse cx="245.279" cy="62.997" rx="9.823" ry="10.512" style="fill:#ef8686;"/><g><path d="M136.311,193.188c-1.63,10.976 -3.948,25.436 -2.487,36.967c1.288,10.161 10.384,28.552 19.157,33.838c9.552,5.756 26.055,9.842 36.885,7.901c8.828,-1.582 19.538,-13.093 23.681,-20.607c4.143,-7.514 4.13,-22.781 0.866,-31.345c-3.688,-9.676 -13.363,-20.934 -21.918,-29.011c-7.256,-6.851 -24.645,-18.856 -33.249,-18.77c-8.604,0.086 -21.093,8.622 -22.935,21.026Z" style="fill:#ccf234;"/><path d="M125.115,147.598c-10.459,-3.709 -29.864,-15.379 -41.461,-16.161c-10.219,-0.689 -29.144,3.312 -36.018,10.905c-7.484,8.268 -9.875,25.129 -10.052,36.131c-0.144,8.967 9.095,21.69 15.672,27.199c6.577,5.51 21.563,8.43 30.594,6.873c10.205,-1.759 23.112,-9.091 32.682,-15.935c8.117,-5.805 19.321,-22.595 20.89,-31.055c1.569,-8.46 -0.489,-13.767 -12.308,-17.958Z" style="fill:#ccf234;"/><path d="M168.166,124.652c3.921,-10.381 9.253,-24.02 10.27,-35.598c0.897,-10.203 -4.092,-30.105 -11.544,-37.131c-8.114,-7.651 -23.374,-15.144 -34.37,-15.545c-8.962,-0.326 -22.313,10.718 -27.955,17.182c-5.642,6.464 -8.425,19.321 -7.052,28.382c1.551,10.238 8.619,23.292 15.266,32.999c5.638,8.234 17.113,27.055 25.54,28.795c8.427,1.741 25.414,-7.353 29.845,-19.084Z" style="fill:#ccf234;"/><path d="M183.457,173.497c10.311,4.101 23.855,9.67 35.414,10.889c10.186,1.074 30.172,-3.567 37.327,-10.895c7.791,-7.98 15.549,-23.107 16.141,-34.094c0.482,-8.955 -8.269,-22.018 -14.634,-27.772c-6.365,-5.754 -21.229,-9.239 -30.313,-8.024c-10.264,1.373 -23.439,8.212 -33.26,14.689c-8.331,5.494 -24,19.67 -25.888,28.065c-1.887,8.395 3.56,22.507 15.213,27.142Z" style="fill:#ccf234;"/><ellipse cx="148.634" cy="159.349" rx="30.073" ry="27.913" style="fill:#ed98d2;"/><path d="M165.868,161.035l-7.283,12.411l-12.188,2.824l-17.093,-8.324l1.412,-15.904l10.107,-8.092l15.309,0l1.486,7.795l-6.54,9.884l-7.655,-4.682" style="fill:none;stroke:#add6f9;stroke-width:8.07px;"/></g></g></svg>