<?xml version="1.0" encoding="UTF-8" standalone="no"?><!DOCTYPE svg PUBLIC "-//W3C//DTD SVG 1.1//EN" "http://www.w3.org/Graphics/SVG/1.1/DTD/svg11.dtd"><svg width="100%" height="100%" viewBox="0 0 286 289" version="1.1" xmlns="http://www.w3.org/2000/svg" xmlns:xlink="http://www.w3.org/1999/xlink" xml:space="preserve" xmlns:serif="http://www.serif.com/" style="fill-rule:evenodd;clip-rule:evenodd;stroke-linecap:round;stroke-linejoin:round;stroke-miterlimit:1.5;"><g><path d="M109.129,190.25c-5.546,5.841 -10.988,13.616 -16.639,17.524c-5.005,3.462 -11.203,5.417 -17.267,5.927c-8.161,0.687 -22.077,1.718 -31.698,-1.804c-9.621,-3.522 -19.672,-11.339 -26.029,-19.328c-6.357,-7.989 -11.039,-19.5 -12.112,-28.606c-1.04,-8.819 0.874,-18.556 5.67,-26.029c5.541,-8.633 18.684,-20.187 27.575,-25.771c7.595,-4.77 17.696,-7.517 25.771,-7.731c7.856,-0.209 21.605,7.989 22.678,6.443c1.074,-1.546 -11.855,-10.781 -16.236,-15.72c-3.797,-4.281 -7.603,-8.744 -10.051,-13.916c-2.663,-5.627 -5.292,-12.97 -5.927,-19.844c-0.687,-7.431 -1.074,-17.095 1.804,-24.74c2.878,-7.645 9.363,-15.935 15.463,-21.132c5.937,-5.059 13.557,-8.848 21.132,-10.051c7.575,-1.203 16.702,0.644 24.316,2.835c7.6,2.187 15.5,6.185 21.369,10.308c5.455,3.832 10.851,9.75 13.846,14.432c2.563,4.006 3.212,8.991 4.123,13.659c1.074,5.498 -0.086,20.617 2.319,19.328c2.405,-1.289 7.602,-19.715 12.112,-27.059c3.949,-6.432 8.635,-12.87 14.947,-17.009c6.486,-4.252 15.935,-7.946 23.967,-8.504c8.032,-0.558 17.524,1.46 24.225,5.154c6.7,3.694 12.284,10.308 15.978,17.009c3.694,6.7 4.896,17.095 6.185,23.194c0.929,4.399 2.473,9.001 1.546,13.401c-1.203,5.713 -5.798,15.463 -8.762,20.874c-2.352,4.295 -4.768,9.167 -9.02,11.597c-6.915,3.952 -30.839,9.707 -32.471,12.112c-1.632,2.405 15.207,0.936 22.678,2.319c8.118,1.503 19.298,2.663 26.029,6.7c6.476,3.884 10.533,11.855 14.356,17.524c3.465,5.138 7.279,10.695 8.58,16.493c1.301,5.798 -0.188,13.514 -0.773,18.297c-0.436,3.56 -1.008,7.264 -2.739,10.406c-2.621,4.758 -8.865,13.951 -12.989,18.143c-3.198,3.252 -7.628,5.06 -11.752,7.01c-5.085,2.405 -12.473,6.769 -18.761,7.422c-6.288,0.653 -13.779,-1.581 -18.967,-3.505c-4.557,-1.69 -8.663,-4.669 -12.164,-8.041c-3.745,-3.608 -9.69,-14.191 -10.308,-13.607c-0.619,0.584 5.257,11.202 6.597,17.112c1.34,5.91 1.849,12.227 1.443,18.349c-0.412,6.219 -1.548,12.962 -3.917,18.967c-2.508,6.357 -5.989,13.916 -11.133,19.174c-5.144,5.257 -12.201,10.48 -19.73,12.37c-7.529,1.89 -17.644,1.993 -25.446,-1.031c-7.802,-3.024 -16.399,-12.301 -21.369,-17.112c-3.467,-3.356 -6.116,-7.529 -8.45,-11.752c-3.135,-5.67 -8.941,-15.6 -10.358,-22.266c-1.236,-5.813 0.349,-11.982 1.856,-17.73c1.726,-6.588 5.669,-14.531 8.503,-21.796" style="fill:#add6f9;stroke:#f5c5a7;stroke-width:9.97px;"/><ellipse cx="152.513" cy="137.962" rx="75.634" ry="79.237" style="fill:#ed98d2;stroke:#f5c5a7;stroke-width:9.97px;"/><ellipse cx="151.338" cy="134.45" rx="48.609" ry="50.952" style="fill:#fdeda1;"/><ellipse cx="149.109" cy="129.441" rx="13.453" ry="14.746" style="fill:#fdeda1;stroke:#d73a87;stroke-width:9.21px;"/><path d="M175.014,129.441c-3.681,2.363 -8.476,10.083 -9.832,14.746c-1.293,4.446 -0.937,8.834 0.419,12.295c1.277,3.259 5.985,7.308 8.862,7.892c2.877,0.584 6.282,-1.435 8.752,-2.491c1.971,-0.843 3.846,-2.91 5.282,-5.01c0.669,-0.979 1.359,-2.193 1.86,-3.213c1.631,-3.318 4.166,-7.336 3.836,-11.552c-0.299,-3.812 -5.401,-10.738 -8.553,-12.667c-3.152,-1.929 -6.944,-2.363 -10.626,0Z" style="fill:#d73a87;"/><path d="M117.514,93.058c-3.681,2.363 -7.886,6.997 -9.242,11.659c-1.293,4.446 -0.22,11.204 1.135,14.665c1.277,3.259 5.23,6.647 8.107,7.231c2.877,0.584 7.258,-1.324 9.727,-2.381c1.971,-0.843 3.846,-3.902 5.282,-6.002c0.669,-0.979 1.359,-2.193 1.86,-3.213c1.631,-3.318 4.959,-11.016 4.277,-15.189c-0.795,-4.859 -4.133,-6.77 -7.616,-7.928c-3.507,-1.165 -9.849,-1.206 -13.53,1.157Z" style="fill:#d73a87;"/><path d="M166.823,82.921c-3.681,2.363 -10.46,8.209 -11.816,12.872c-1.293,4.446 0.11,7.621 1.466,11.082c1.277,3.259 7.749,7.087 10.626,7.672c2.877,0.584 5.896,0.384 8.366,-0.672c1.971,-0.843 3.846,-2.91 5.282,-5.01c0.669,-0.979 1.359,-2.193 1.86,-3.213c1.631,-3.318 2.954,-6.951 2.623,-11.166c-0.299,-3.812 -4.85,-9.361 -8.002,-11.289c-3.152,-1.929 -6.724,-2.639 -10.405,-0.276Z" style="fill:#d73a87;"/><path d="M143.128,159.456c-3.681,2.363 -6.933,4.627 -8.289,9.29c-1.293,4.446 -0.937,6.574 0.419,10.035c1.277,3.259 4.332,7.253 7.209,7.837c2.877,0.584 5.235,0.494 7.705,-0.562c1.971,-0.843 7.743,-5.274 8.245,-6.294c1.631,-3.318 4.166,-7.336 3.836,-11.552c-0.244,-3.11 -5.438,-7.462 -6.018,-7.817c-3.152,-1.929 -9.424,-3.3 -13.106,-0.937Z" style="fill:#d73a87;"/><path d="M124.874,139.594c-3.525,-1.111 -12.544,1.896 -13.9,6.559c-1.293,4.446 -1.073,11.567 1.014,13.631c1.844,1.824 8.762,5.75 11.232,4.694c1.971,-0.843 8.776,-3.847 9.278,-4.867c1.631,-3.318 2.494,-7.962 1.537,-12.08c-1.126,-4.845 -5.664,-6.834 -9.161,-7.937Z" style="fill:#d73a87;"/></g></svg>